HIERARCHY
ROOT Hips
{
  OFFSET 0.0000 0.0000 0.0000
  CHANNELS 6 Xposition Yposition Zposition Zrotation Xrotation Yrotation
  JOINT Spine
  {
    OFFSET 0.0000 10.0000 0.0000
    CHANNELS 3 Zrotation Xrotation Yrotation
    JOINT Spine1
    {
      OFFSET 0.0000 10.0000 0.0000
      CHANNELS 3 Zrotation Xrotation Yrotation
      JOINT Spine2
      {
        OFFSET 0.0000 10.0000 0.0000
        CHANNELS 3 Zrotation Xrotation Yrotation
        JOINT Neck
        {
          OFFSET 0.0000 10.0000 0.0000
          CHANNELS 3 Zrotation Xrotation Yrotation
          JOINT Head
          {
            OFFSET 0.0000 10.0000 0.0000
            CHANNELS 3 Zrotation Xrotation Yrotation
            End Site
            {
              OFFSET 0.0000 10.0000 0.0000
            }
          }
        }
        JOINT LeftShoulder
        {
          OFFSET 5.0000 5.0000 0.0000
          CHANNELS 3 Zrotation Xrotation Yrotation
          JOINT LeftArm
          {
            OFFSET 10.0000 0.0000 0.0000
            CHANNELS 3 Zrotation Xrotation Yrotation
            JOINT LeftForeArm
            {
              OFFSET 20.0000 0.0000 0.0000
              CHANNELS 3 Zrotation Xrotation Yrotation
              JOINT LeftHand
              {
                OFFSET 20.0000 0.0000 0.0000
                CHANNELS 3 Zrotation Xrotation Yrotation
                End Site
                {
                  OFFSET 10.0000 0.0000 0.0000
                }
              }
            }
          }
        }
        JOINT RightShoulder
        {
          OFFSET -5.0000 5.0000 0.0000
          CHANNELS 3 Zrotation Xrotation Yrotation
          JOINT RightArm
          {
            OFFSET -10.0000 0.0000 0.0000
            CHANNELS 3 Zrotation Xrotation Yrotation
            JOINT RightForeArm
            {
              OFFSET -20.0000 0.0000 0.0000
              CHANNELS 3 Zrotation Xrotation Yrotation
              JOINT RightHand
              {
                OFFSET -20.0000 0.0000 0.0000
                CHANNELS 3 Zrotation Xrotation Yrotation
                End Site
                {
                  OFFSET -10.0000 0.0000 0.0000
                }
              }
            }
          }
        }
      }
    }
  }
  JOINT LeftUpLeg
  {
    OFFSET 10.0000 0.0000 0.0000
    CHANNELS 3 Zrotation Xrotation Yrotation
    JOINT LeftLeg
    {
      OFFSET 0.0000 -40.0000 0.0000
      CHANNELS 3 Zrotation Xrotation Yrotation
      JOINT LeftFoot
      {
        OFFSET 0.0000 -40.0000 0.0000
        CHANNELS 3 Zrotation Xrotation Yrotation
        JOINT LeftToeBase
        {
          OFFSET 0.0000 -5.0000 10.0000
          CHANNELS 3 Zrotation Xrotation Yrotation
          End Site
          {
            OFFSET 0.0000 0.0000 5.0000
          }
        }
      }
    }
  }
  JOINT RightUpLeg
  {
    OFFSET -10.0000 0.0000 0.0000
    CHANNELS 3 Zrotation Xrotation Yrotation
    JOINT RightLeg
    {
      OFFSET 0.0000 -40.0000 0.0000
      CHANNELS 3 Zrotation Xrotation Yrotation
      JOINT RightFoot
      {
        OFFSET 0.0000 -40.0000 0.0000
        CHANNELS 3 Zrotation Xrotation Yrotation
        JOINT RightToeBase
        {
          OFFSET 0.0000 -5.0000 10.0000
          CHANNELS 3 Zrotation Xrotation Yrotation
          End Site
          {
            OFFSET 0.0000 0.0000 5.0000
          }
        }
      }
    }
  }
}
MOTION
Frames: 8
Frame Time: 0.033333
0.0000 100.0000 0.0000 0.0000 0.0000 0.0000 -0.0000 0.0000 0.0000 -0.0000 0.0000 0.0000 -0.0000 0.0000 0.0000 0.0000 0.0000 0.0000 -0.0000 0.0000 0.0000 0.0000 0.0000 0.0000 0.0000 0.0000 0.0000 0.0000 0.0000 0.0000 0.0000 0.0000 0.0000 0.0000 0.0000 -0.0000 0.0000 0.0000 -0.0000 0.0000 0.0000 0.0000 0.0000 0.0000 0.0000 0.0000 0.0000 0.0000 0.0000 0.0000 0.0000 0.0000 0.0000 0.0000 0.0000 0.0000 0.0000 0.0000 0.0000 0.0000 0.0000 0.0000 0.0000 0.0000 0.0000 0.0000 0.0000 0.0000 0.0000
0.0000 100.0000 0.0000 0.0000 0.0000 0.0000 -0.3193 0.0000 0.0000 -0.1916 0.0000 0.0000 -0.1277 0.0000 0.0000 0.0000 0.0000 0.0000 -0.3193 0.0000 0.0000 0.0000 0.0000 1.3172 0.0000 0.0000 8.7817 0.0000 1.0644 0.0000 0.0000 0.0000 0.0000 0.0000 0.0000 -1.3172 0.0000 0.0000 -8.7817 0.0000 1.0644 0.0000 0.0000 0.0000 0.0000 0.0000 0.0000 0.0000 0.0000 0.0000 0.0000 0.0000 0.0000 0.0000 0.0000 0.0000 0.0000 0.0000 0.0000 0.0000 0.0000 0.0000 0.0000 0.0000 0.0000 0.0000 0.0000 0.0000 0.0000
0.0000 100.0000 0.0000 0.0000 0.0000 0.0000 -0.6378 0.0000 0.0000 -0.3827 0.0000 0.0000 -0.2551 0.0000 0.0000 0.0000 0.0000 0.0000 -0.6378 0.0000 0.0000 0.0000 0.0000 2.6308 0.0000 0.0000 17.5384 0.0000 2.1259 0.0000 0.0000 0.0000 0.0000 0.0000 0.0000 -2.6308 0.0000 0.0000 -17.5384 0.0000 2.1259 0.0000 0.0000 0.0000 0.0000 0.0000 0.0000 0.0000 0.0000 0.0000 0.0000 0.0000 0.0000 0.0000 0.0000 0.0000 0.0000 0.0000 0.0000 0.0000 0.0000 0.0000 0.0000 0.0000 0.0000 0.0000 0.0000 0.0000 0.0000
0.0000 100.0000 0.0000 0.0000 0.0000 0.0000 -0.9544 0.0000 0.0000 -0.5726 0.0000 0.0000 -0.3818 0.0000 0.0000 0.0000 0.0000 0.0000 -0.9544 0.0000 0.0000 0.0000 0.0000 3.9368 0.0000 0.0000 26.2455 0.0000 3.1813 0.0000 0.0000 0.0000 0.0000 0.0000 0.0000 -3.9368 0.0000 0.0000 -26.2455 0.0000 3.1813 0.0000 0.0000 0.0000 0.0000 0.0000 0.0000 0.0000 0.0000 0.0000 0.0000 0.0000 0.0000 0.0000 0.0000 0.0000 0.0000 0.0000 0.0000 0.0000 0.0000 0.0000 0.0000 0.0000 0.0000 0.0000 0.0000 0.0000 0.0000
0.0000 100.0000 0.0000 0.0000 0.0000 0.0000 -1.2683 0.0000 0.0000 -0.7610 0.0000 0.0000 -0.5073 0.0000 0.0000 0.0000 0.0000 0.0000 -1.2683 0.0000 0.0000 0.0000 0.0000 5.2317 0.0000 0.0000 34.8781 0.0000 4.2277 0.0000 0.0000 0.0000 0.0000 0.0000 0.0000 -5.2317 0.0000 0.0000 -34.8781 0.0000 4.2277 0.0000 0.0000 0.0000 0.0000 0.0000 0.0000 0.0000 0.0000 0.0000 0.0000 0.0000 0.0000 0.0000 0.0000 0.0000 0.0000 0.0000 0.0000 0.0000 0.0000 0.0000 0.0000 0.0000 0.0000 0.0000 0.0000 0.0000 0.0000
0.0000 100.0000 0.0000 0.0000 0.0000 0.0000 -1.5786 0.0000 0.0000 -0.9472 0.0000 0.0000 -0.6314 0.0000 0.0000 0.0000 0.0000 0.0000 -1.5786 0.0000 0.0000 0.0000 0.0000 6.5118 0.0000 0.0000 43.4119 0.0000 5.2621 0.0000 0.0000 0.0000 0.0000 0.0000 0.0000 -6.5118 0.0000 0.0000 -43.4119 0.0000 5.2621 0.0000 0.0000 0.0000 0.0000 0.0000 0.0000 0.0000 0.0000 0.0000 0.0000 0.0000 0.0000 0.0000 0.0000 0.0000 0.0000 0.0000 0.0000 0.0000 0.0000 0.0000 0.0000 0.0000 0.0000 0.0000 0.0000 0.0000 0.0000
0.0000 100.0000 0.0000 0.0000 0.0000 0.0000 -1.8845 0.0000 0.0000 -1.1307 0.0000 0.0000 -0.7538 0.0000 0.0000 0.0000 0.0000 0.0000 -1.8845 0.0000 0.0000 0.0000 0.0000 7.7734 0.0000 0.0000 51.8227 0.0000 6.2815 0.0000 0.0000 0.0000 0.0000 0.0000 0.0000 -7.7734 0.0000 0.0000 -51.8227 0.0000 6.2815 0.0000 0.0000 0.0000 0.0000 0.0000 0.0000 0.0000 0.0000 0.0000 0.0000 0.0000 0.0000 0.0000 0.0000 0.0000 0.0000 0.0000 0.0000 0.0000 0.0000 0.0000 0.0000 0.0000 0.0000 0.0000 0.0000 0.0000 0.0000
0.0000 100.0000 0.0000 0.0000 0.0000 0.0000 -2.1850 0.0000 0.0000 -1.3110 0.0000 0.0000 -0.8740 0.0000 0.0000 0.0000 0.0000 0.0000 -2.1850 0.0000 0.0000 0.0000 0.0000 9.0130 0.0000 0.0000 60.0865 0.0000 7.2832 0.0000 0.0000 0.0000 0.0000 0.0000 0.0000 -9.0130 0.0000 0.0000 -60.0865 0.0000 7.2832 0.0000 0.0000 0.0000 0.0000 0.0000 0.0000 0.0000 0.0000 0.0000 0.0000 0.0000 0.0000 0.0000 0.0000 0.0000 0.0000 0.0000 0.0000 0.0000 0.0000 0.0000 0.0000 0.0000 0.0000 0.0000 0.0000 0.0000 0.0000
